<svg xmlns="http://www.w3.org/2000/svg" width="16" height="16" viewBox="0 0 16 16">
    <g fill="none" fill-rule="evenodd">
        <g>
            <g>
                <g>
                    <g>
                        <g>
                            <path d="M0 0H16V16H0z" transform="translate(-1544 -739) translate(360 726) translate(1073 11) translate(111) translate(0 2)"/>
                            <path fill="#4D5661" d="M7.296 12.707c-.39.391-1.023.392-1.413.001v-.001c-.39-.391-.39-1.024 0-1.415L9.17 7.999 5.882 4.71c-.39-.392-.39-1.025 0-1.416.36-.361.928-.39 1.32-.084l.094.083 3.29 3.293 1.415 1.416-1.414 1.415-3.29 3.291z" transform="translate(-1544 -739) translate(360 726) translate(1073 11) translate(111) translate(0 2)"/>
                        </g>
                    </g>
                </g>
            </g>
        </g>
    </g>
</svg>
