<svg width="24" height="24" viewBox="0 0 24 24" xmlns="http://www.w3.org/2000/svg">
    <g fill="none" fill-rule="evenodd">
        <path d="M0 0h24v24H0z"/>
        <path d="m5.603 4.21.095.084 6.289 6.298.004-.003L13.397 12l-.003.003.002.003-1.406 1.408-.003-.002-6.288 6.297a.994.994 0 0 1-1.312.084l-.095-.084a.997.997 0 0 1 0-1.408l6.288-6.298-6.289-6.299a.997.997 0 0 1 0-1.409.994.994 0 0 1 1.312-.083zm7 0 .095.084 6.289 6.298.004-.003L20.397 12l-.003.003.002.003-1.406 1.408-.003-.002-6.288 6.297a.994.994 0 0 1-1.312.084l-.095-.084a.997.997 0 0 1 0-1.408l6.288-6.298-6.289-6.299a.997.997 0 0 1 0-1.409.994.994 0 0 1 1.312-.083z" fill="#3B424A"/>
    </g>
</svg>
