<svg xmlns="http://www.w3.org/2000/svg" width="16" height="16" viewBox="0 0 16 16">
    <g fill="none" fill-rule="evenodd">
        <g fill="#4D5661">
            <g>
                <g>
                    <g>
                        <path d="M6.5 1C9.538 1 12 3.462 12 6.5c0 1.161-.36 2.238-.974 3.126l3.684 3.684c.387.387.387 1.014 0 1.4-.386.387-1.013.387-1.4 0l-3.684-3.684C8.738 11.64 7.66 12 6.5 12 3.462 12 1 9.538 1 6.5S3.462 1 6.5 1zm-.02 1.98c-1.933 0-3.5 1.567-3.5 3.5s1.567 3.5 3.5 3.5 3.5-1.567 3.5-3.5-1.567-3.5-3.5-3.5z" transform="translate(-130 -449) translate(48 315) translate(69 121) translate(13 13)"/>
                    </g>
                </g>
            </g>
        </g>
    </g>
</svg>
