<svg xmlns="http://www.w3.org/2000/svg" width="24" height="24" viewBox="0 0 24 24">
    <g fill="none" fill-rule="evenodd">
        <g fill="#4D5661">
            <g>
                <g>
                    <g>
                        <path d="M4.929 3.5l2.636 2.636c1.406-.764 2.885-1.15 4.435-1.15 3.69 0 6.974 2.189 9.83 6.442.227.337.227.778 0 1.115-1.163 1.731-2.396 3.12-3.7 4.16l2.355 2.353-1.414 1.415L3.515 4.914 4.929 3.5zm-.12 4.706L6.22 9.62c-.682.661-1.35 1.449-2.005 2.365 2.408 3.37 4.996 5 7.784 5 .485 0 .964-.049 1.437-.148l1.617 1.618c-.984.353-2.003.53-3.054.53-3.69 0-6.974-2.19-9.83-6.442-.227-.337-.227-.778 0-1.115.842-1.255 1.722-2.33 2.638-3.222zm3.228 3.232l4.51 4.51c-.179.025-.361.037-.547.037-2.21 0-4-1.79-4-4 0-.185.013-.368.037-.547zM12 6.985c-1.007 0-1.987.213-2.943.643l.91.911c.596-.352 1.291-.554 2.033-.554 2.21 0 4 1.791 4 4 0 .742-.202 1.437-.554 2.032l1.26 1.262c1.057-.806 2.083-1.901 3.078-3.294-2.408-3.369-4.996-5-7.784-5zm0 3c-.18 0-.353.024-.518.068l2.45 2.45c.044-.165.068-.338.068-.518 0-1.104-.895-2-2-2z" transform="translate(-522 -1012) translate(48 379) translate(68 613) translate(406 20)"/>
                    </g>
                </g>
            </g>
        </g>
    </g>
</svg>
