<svg xmlns="http://www.w3.org/2000/svg" width="24" height="24" viewBox="0 0 24 24">
    <g fill="none" fill-rule="evenodd">
        <g>
            <g>
                <g>
                    <g>
                        <g>
                            <g>
                                <path d="M0 0H24V24H0z" transform="translate(-502 -624) translate(48 379) translate(68 141) translate(0 84) translate(366) translate(20 20)"/>
                                <path fill="#4D5661" d="M12.002 6l.707.707.015.017 6.983 6.983c.39.391.39 1.024 0 1.415-.39.39-1.024.39-1.414 0L12 8.829l-6.292 6.293c-.39.39-1.024.39-1.414 0-.39-.39-.39-1.024 0-1.415L12.002 6z" transform="translate(-502 -624) translate(48 379) translate(68 141) translate(0 84) translate(366) translate(20 20)"/>
                            </g>
                        </g>
                    </g>
                </g>
            </g>
        </g>
    </g>
</svg>
