<svg xmlns="http://www.w3.org/2000/svg" width="24" height="25" viewBox="0 0 24 25" fill="#4D5661">
  <path d="M12 5c3.69 0 6.974 2.19 9.83 6.442.227.338.227.778 0 1.116C18.974 16.81 15.69 19 12 19c-3.69 0-6.974-2.19-9.83-6.442-.227-.338-.227-.778 0-1.116C5.026 7.19 8.31 5 12 5zm0 2c-2.788 0-5.376 1.63-7.784 5 2.408 3.37 4.996 5 7.784 5 2.788 0 5.376-1.63 7.784-5C17.376 8.63 14.788 7 12 7zm0 1c2.21 0 4 1.79 4 4s-1.79 4-4 4-4-1.79-4-4 1.79-4 4-4zm0 2c-1.105 0-2 .895-2 2s.895 2 2 2 2-.895 2-2-.895-2-2-2z" transform="translate(-502 -850) translate(48 379) translate(68 451) translate(366) translate(20 20)"/>
</svg>
