<svg
  xmlns="http://www.w3.org/2000/svg"
  width="16"
  height="16"
  viewBox="0 0 16 16"
  fill="#4D5561"
>
  <path
    d="M8 1c.552 0 1 .448 1 1v5h5c.552 0 1 .448 1 1s-.448 1-1 1H9v5c0 .552-.448 1-1 1s-1-.448-1-1V8.999L2 9c-.552 0-1-.448-1-1s.448-1 1-1l5-.001V2c0-.552.448-1 1-1z"
    transform="translate(-927.000000, -424.000000) translate(672.000000, 56.000000) translate(0.000000, 115.000000) translate(30.000000, 212.000000) translate(16.000000, 28.000000) translate(201.000000, 5.000000) translate(8.000000, 8.000000)"
  />
</svg>
