<svg width="24" height="24" viewBox="0 0 24 24" xmlns="http://www.w3.org/2000/svg">
    <g fill="none" fill-rule="evenodd">
        <path d="M0 0h24v24H0z"/>
        <path d="M4.707 3.29 12 10.582l7.293-7.292a1 1 0 0 1 1.32-.083l.094.084a1 1 0 0 1 0 1.414l-7.292 7.292 7.292 7.293a1 1 0 0 1 .083 1.32l-.083.095a1 1 0 0 1-1.414 0L12 13.412l-7.293 7.293a1 1 0 0 1-1.32.083l-.094-.084a1 1 0 0 1 0-1.414l7.292-7.293-7.292-7.292a1 1 0 0 1-.084-1.32l.084-.095a1 1 0 0 1 1.414 0z" fill="#3B424A"/>
    </g>
</svg>
