<svg width="10" height="10" viewBox="0 0 10 10" fill="none" xmlns="http://www.w3.org/2000/svg">
<path fill-rule="evenodd" clip-rule="evenodd" d="M1.35376 0.645043L5 4.2911L8.6464 0.645085C8.82665 0.464843 9.11026 0.450979 9.30641 0.603491L9.35372 0.645292C9.54898 0.840554 9.54898 1.15714 9.35372 1.3524L5.7075 4.9986L9.35372 8.645C9.53396 8.82524 9.54782 9.10886 9.39531 9.305L9.35351 9.35231C9.15825 9.54757 8.84167 9.54757 8.6464 9.35231L5 5.7061L1.3538 9.35231C1.17356 9.53255 0.889945 9.54642 0.693799 9.39391L0.646489 9.35211C0.451227 9.15685 0.451227 8.84026 0.646489 8.645L4.2925 4.9986L0.646447 1.35236C0.466205 1.17211 0.45234 0.888498 0.604852 0.692353L0.646653 0.645043C0.841915 0.449781 1.1585 0.449781 1.35376 0.645043Z" fill="#0CB639"/>
</svg>
